<svg width="310" height="388" viewBox="0 0 310 388" fill="none" xmlns="http://www.w3.org/2000/svg">
<path d="M177.847 138.964L180.793 149.71C198.116 212.904 195.303 279.927 172.747 341.449L160.74 387.696C146.807 343.527 113.439 308.156 70.1566 291.674L56.5275 286.484C36.9707 279.037 27.7316 256.651 36.3433 237.578L120.453 51.2968L70.0845 206.268C66.3993 217.607 68.6174 230.037 75.9972 239.4C79.9954 244.474 85.2952 248.367 91.3318 250.666L99.0429 253.602C114.782 259.596 128.292 270.294 137.733 284.241L146.51 297.208L152.409 283.884C163.943 257.833 170.939 230.001 173.095 201.592L177.847 138.964Z" fill="url(#paint0_linear)"/>
<path d="M128.344 62.6291L130.959 53.4799C136.174 35.2382 143.624 17.7114 153.141 1.2981C165.213 44.2823 195.948 79.5741 236.866 97.4365L253.237 104.583C272.398 112.948 280.942 135.426 272.174 154.405L184.676 343.811L244.406 166.982C250.247 149.692 239.007 131.332 220.952 128.67C198.308 126.259 178.078 113.441 166.227 93.9949L163.413 89.3763L160.993 94.2055C145.562 124.997 136.66 158.645 134.845 193.038L132.04 246.187L126.141 223.18C112.611 170.416 113.371 115.002 128.344 62.6291Z" fill="url(#paint1_linear)"/>
<defs>
<linearGradient id="paint0_linear" x1="138.581" y1="334.549" x2="86.6779" y2="194.088" gradientUnits="userSpaceOnUse">
<stop stop-color="#FFCC28"/>
<stop offset="1" stop-color="#FFB000"/>
</linearGradient>
<linearGradient id="paint1_linear" x1="173.116" y1="52.4563" x2="218.255" y2="195
.235" gradientUnits="userSpaceOnUse">
<stop stop-color="#FFCC28"/>
<stop offset="1" stop-color="#FFB000"/>
</linearGradient>
</defs>
</svg>
