<svg width="1440" height="1024" viewBox="0 0 1440 1024" fill="none" xmlns="http://www.w3.org/2000/svg">
<g clip-path="url(#clip0)">
<rect width="1440" height="1024" fill="#10130F"/>
<g filter="url(#filter0_f)">
<path d="M-91.4181 547.916C-85.7471 554.978 -80.2001 562.126 -74.6808 569.299C-51.613 578.385 -28.3388 586.789 -4.99088 595.146C10.8558 600.817 28.9871 604.942 37.4323 620.868C59.2875 662.08 79.3837 696.39 116.915 726.316C174.645 772.348 240.03 810.769 301.968 850.66C372.983 896.397 444.497 940.923 519.325 980.246C576.631 1010.36 636.992 1034.9 693.163 1067.16C719.549 1082.32 746.472 1100.08 765.575 1124.34C773.564 1134.48 776.134 1146.02 763.015 1151.52C740.8 1160.84 716.344 1165.46 693.407 1172.61C634.65 1190.95 571.097 1244.12 505.916 1226.25C491.759 1222.37 479.678 1209.68 472.27 1197.48C458.506 1174.82 449.471 1151.05 431.797 1130.68C382.21 1073.51 309.124 1043.91 255.765 991.217C235.213 970.922 218.829 948.56 201.639 925.51C177.759 893.489 150.117 863.695 118.987 838.591C99.7267 823.058 80.0716 812.276 69.0059 789.097C56.1216 762.11 50.0317 733.564 33.4094 708.152C9.71835 671.933 -19.2087 639.36 -46.3169 605.751C-56.007 593.738 -65.304 581.484 -74.6808 569.299C-76.7276 568.492 -78.7728 567.681 -80.8162 566.863C-98.3619 559.845 -129.442 549.951 -138.965 531.876C-142.117 525.895 -143.327 520.254 -143.11 514.886C-168.007 493.411 -203.355 448.118 -196.017 413.628C-190.003 385.361 -130.13 389.004 -111.171 395.83C-100.365 399.72 -80.7713 407.373 -90.081 420.82C-96.6093 430.25 -94.3949 442.854 -99.7116 451.906C-111.193 471.457 -142.118 490.304 -143.11 514.886C-141.948 515.889 -140.808 516.84 -139.697 517.735C-126.14 528.656 -108.429 540.571 -91.4181 547.916Z" fill="#492760"/>
</g>
<path d="M1598.85 499.964L1601.79 510.71C1619.12 573.904 1616.3 640.927 1593.75 702.449L1581.74 748.696C1567.81 704.527 1534.44 669.156 1491.16 652.674L1477.53 647.484C1457.97 640.037 1448.73 617.651 1457.34 598.578L1541.45 412.297L1491.08 567.268C1487.4 578.607 1489.62 591.037 1497 600.4C1501 605.474 1506.3 609.367 1512.33 611.666L1520.04 614.602C1535.78 620.596 1549.29 631.294 1558.73 645.241L1567.51 658.208L1573.41 644.884C1584.94 618.833 1591.94 591.001 1594.09 562.592L1598.85 499.964Z" fill="url(#paint0_linear)"/>
<g filter="url(#filter1_f)">
<path d="M1027.75 69.2496C1916.77 354.684 1590.55 383.882 1553 328.479V790L870.043 454.353C798.603 419.243 723.227 392.789 645.514 375.552L-306 164.5L-236 24H733.474C832.935 24 933.054 38.8445 1027.75 69.2496Z" fill="#9C8F2A"/>
</g>
<g filter="url(#filter2_f)">
<path d="M1480 461.674C1429.5 545.008 198.5 -89.3256 -144 259.674L-39.3532 323.181C95.3095 404.904 247.374 453.658 404.45 465.473L582.542 478.868C766.271 492.687 942.61 556.997 1092.1 664.701L1480 944.174V461.674Z" fill="#52514A"/>
</g>
</g>
<defs>
<filter id="filter0_f" x="-297" y="291" width="1169.21" height="1038.87" filterUnits="userSpaceOnUse" color-interpolation-filters="sRGB">
<feFlood flood-opacity="0" result="BackgroundImageFix"/>
<feBlend mode="normal" in="SourceGraphic" in2="BackgroundImageFix" result="shape"/>
<feGaussianBlur stdDeviation="50" result="effect1_foregroundBlur"/>
</filter>
<filter id="filter1_f" x="-356" y="-26" width="2048.12" height="866" filterUnits="userSpaceOnUse" color-interpolation-filters="sRGB">
<feFlood flood-opacity="0" result="BackgroundImageFix"/>
<feBlend mode="normal" in="SourceGraphic" in2="BackgroundImageFix" result="shape"/>
<feGaussianBlur stdDeviation="25" result="effect1_foregroundBlur"/>
</filter>
<filter id="filter2_f" x="-244" y="54" width="1824" height="990.174" filterUnits="userSpaceOnUse" color-interpolation-filters="sRGB">
<feFlood flood-opacity="0" result="BackgroundImageFix"/>
<feBlend mode="normal" in="SourceGraphic" in2="BackgroundImageFix" result="shape"/>
<feGaussianBlur stdDeviation="50" result="effect1_foregroundBlur"/>
</filter>
<linearGradient id="paint0_linear" x1="1559.58" y1="695.549" x2="1507.68" y2="555.088" gradientUnits="userSpaceOnUse">
<stop stop-color="#FFCC28"/>
<stop offset="1" stop-color="#FFB000"/>
</linearGradient>
<clipPath id="clip0">
<rect width="1440" height="1024" fill="white"/>
</clipPath>
</defs>
</svg>
